<?xml version="1.0" encoding="utf-8"?>
<!-- Generator: Adobe Illustrator 25.3.0, SVG Export Plug-In . SVG Version: 6.00 Build 0)  -->
<svg version="1.1"
	 id="Layer_1" xmlns:cc="http://creativecommons.org/ns#" xmlns:dc="http://purl.org/dc/elements/1.1/" xmlns:rdf="http://www.w3.org/1999/02/22-rdf-syntax-ns#"
	 xmlns="http://www.w3.org/2000/svg" xmlns:xlink="http://www.w3.org/1999/xlink" x="0px" y="0px" viewBox="0 0 612 792"
	 style="enable-background:new 0 0 612 792;" xml:space="preserve">
<g>
	<g id="XMLID_1_">
		<g>
			<path d="M609,501.4h-17.6h-9.1c-0.8-4.4-2.1-7.5-3.9-9.3c-2.9-2.9-7.7-4.3-14.5-4.3c-6.6,0-11.2,1.1-13.8,3.3c-1.9,1.7-3,4-3,6.8
				c0,4,5.6,7.3,16.8,9.8c12.7,2.8,21.8,5.2,27.4,7.1c1.5,0.6,2.8,1,3.7,1.5c11.3,5.3,16.9,13.5,16.9,24.3c0,13.3-5.5,22.9-16.5,29
				c-1.4,0.7-2.7,1.4-4.1,2c-7.1,3-15.4,4.6-24.7,4.6c-13.9,0-25.1-2.5-33.7-7.4c-5.4-3.1-9.4-7.1-12.1-11.8c-2.7-4.7-4-10.3-4-16.6
				h28c0,4.8,1.8,8.6,5.2,11.1c3.4,2.7,9.2,4.1,17.4,4.1c6.2,0,10.8-1.3,13.8-3.9c2.4-2,3.5-4.2,3.5-6.8c0-4.3-5.5-7.7-16.5-10.1
				c-16.4-3.5-26.7-6.4-30.9-8.4c-11.2-5.2-16.8-13.3-16.8-24.6c0-9,2.9-16.7,8.7-22.9c7.4-7.8,18.4-11.7,33.1-11.7
				c12.1,0,21.7,1.8,29,5.2c0.6,0.3,1.2,0.6,1.8,0.9c5.2,2.8,9.2,6.6,11.9,11.3C607.6,489.2,609,494.9,609,501.4z"/>
			<path d="M594.7,436.2c0-0.6-0.1-1-0.4-1.4c-0.3-0.5-0.6-0.7-1.2-0.9c-0.4-0.1-0.9-0.2-1.8-0.3h-1h-3.2v5.2h3.4c0.3,0,0.6,0,0.8,0
				c1.2-0.1,2-0.3,2.5-0.7C594.4,437.6,594.7,436.9,594.7,436.2z M596.9,433.4c0.6,0.7,0.8,1.6,0.8,2.5c0,1.3-0.5,2.4-1.4,3.3
				c-0.9,0.9-2.1,1.5-3.6,1.6c0.6,0.3,1.1,0.6,1.5,0.9l2.6,3.4l2,3.4h-3.3l-1.6-2.8c-1-1.7-1.8-3-2.6-3.7c-0.1-0.1-0.2-0.2-0.4-0.3
				l-2.2-0.6h-1.7v7.4h-2.8v-17.3h6c0.4,0,0.7,0.1,1,0.1c1.5,0,2.6,0.2,3.3,0.5C595.6,432.1,596.3,432.6,596.9,433.4z"/>
			<path d="M604.7,439.7c0-2.4-0.6-4.6-1.8-6.7c-1.2-2.1-2.9-3.8-5-5c-2.1-1.1-4.3-1.7-6.5-1.7c-0.1,0-0.1,0-0.1,0
				c-2.2,0-4.4,0.6-6.5,1.7c-2.1,1.2-3.8,2.9-5,5c-1.2,2.1-1.8,4.3-1.8,6.7c0,2.3,0.6,4.5,1.8,6.6c1.1,2,2.8,3.7,4.9,4.9
				c2.1,1.2,4.3,1.8,6.6,1.8c0,0,0,0,0.1,0c2.3,0,4.5-0.6,6.6-1.8c2.1-1.2,3.8-2.9,4.9-4.9C604.2,444.2,604.7,442,604.7,439.7z
				 M607.4,439.7c0,2.7-0.7,5.3-2.1,7.9c-1.4,2.6-3.3,4.5-5.9,5.9c-2.6,1.5-5.2,2.1-7.9,2.1c-0.1,0-0.1,0-0.1,0
				c-2.8,0-5.3-0.6-7.9-2.1c-2.6-1.4-4.5-3.3-5.9-5.9c-1.5-2.6-2.1-5.2-2.1-7.9c0-2.9,0.6-5.5,2.1-8.1c1.5-2.6,3.4-4.5,6-5.9
				c2.6-1.4,5.2-2,7.8-2.1c0,0,0,0,0.1,0c2.7,0,5.3,0.7,7.8,2.1c2.6,1.4,4.6,3.3,6,5.9C606.7,434.2,607.4,436.8,607.4,439.7z"/>
			<polygon points="450.8,309.6 526.4,435.6 450.8,435.6 404.9,435.6 332.7,315.2 278,224.1 332.7,191.2 367.1,170.5 			"/>
			<path d="M505.6,523v51.7h-25.1V569c-8.5,5.5-18.6,8.8-29.5,8.8c-0.1,0-0.2,0-0.3,0c-30-0.2-54.4-24.7-54.4-54.7
				c0-30,24.4-54.5,54.4-54.7c0.1,0,0.2,0,0.3,0c10.9,0,21,3.2,29.5,8.7v-6h25.1V523z M480.5,528.7v-11.4
				c-2.7-13.8-14.9-24.3-29.5-24.3c-0.1,0-0.2,0-0.3,0c-16.5,0.1-29.8,13.5-29.8,30c0,16.5,13.4,29.9,29.8,30.1c0.1,0,0.2,0,0.3,0
				C465.6,553.1,477.8,542.6,480.5,528.7z"/>
			<path d="M387.6,523v51.7h-25.1V569c-8.6,5.5-18.6,8.8-29.5,8.8c-0.1,0-0.2,0-0.3,0c-30-0.2-54.4-24.7-54.4-54.7
				c0-30,24.4-54.5,54.4-54.7c0.1,0,0.2,0,0.3,0c10.9,0,20.9,3.2,29.5,8.7v-41.5h25.1V523z M362.5,528.7v-11.4
				c-2.7-13.8-14.9-24.3-29.5-24.3c-0.1,0-0.2,0-0.3,0c-16.5,0.1-29.8,13.5-29.8,30c0,16.5,13.3,29.9,29.8,30.1c0.1,0,0.2,0,0.3,0
				C347.5,553.1,359.8,542.6,362.5,528.7z"/>
			<polygon points="332.7,386 362.4,435.6 332.7,435.6 241,435.6 173.6,323.4 170.6,318.5 173.6,316.8 259.9,264.8 			"/>
			<rect x="241.1" y="468.3" width="27.3" height="106.4"/>
			<rect x="241.1" y="436.1" width="27.3" height="24"/>
			<path d="M228.5,523v51.7h-25.1V569c-8.6,5.5-18.7,8.8-29.6,8.8c-0.1,0-0.2,0-0.3,0c-30-0.2-54.4-24.7-54.4-54.7
				c0-30,24.4-54.5,54.4-54.7c0.1,0,0.2,0,0.3,0c10.9,0,21,3.2,29.6,8.7v-41.5h25.1V523z M203.4,528.7v-11.4
				c-2.7-13.8-14.9-24.3-29.6-24.3c-0.1,0-0.2,0-0.3,0c-16.5,0.1-29.8,13.5-29.8,30c0,16.5,13.3,29.9,29.8,30.1c0.1,0,0.2,0,0.3,0
				C188.5,553.1,200.7,542.6,203.4,528.7z"/>
			<polygon points="173.6,394.1 198.4,435.6 173.6,435.6 77,435.6 63.4,412.8 152.6,359.2 			"/>
			<path d="M109.3,523v51.7H84.2V569c-8.6,5.5-18.7,8.8-29.6,8.8c-0.1,0-0.2,0-0.3,0C24.4,577.5,0,553,0,523
				c0-30,24.4-54.5,54.3-54.7c0.1,0,0.2,0,0.3,0c10.9,0,21,3.2,29.6,8.7v-6h25.1V523z M84.2,528.7v-11.4
				C81.5,503.5,69.3,493,54.6,493c-0.1,0-0.2,0-0.3,0c-16.4,0.1-29.7,13.5-29.7,30c0,16.5,13.3,29.9,29.7,30.1c0.1,0,0.2,0,0.3,0
				C69.3,553.1,81.5,542.6,84.2,528.7z"/>
		</g>
	</g>
</g>
</svg>
