<?xml version="1.0" encoding="utf-8"?>
<!-- Generator: Adobe Illustrator 25.0.1, SVG Export Plug-In . SVG Version: 6.00 Build 0)  -->
<svg version="1.1" id="Layer_1" xmlns="http://www.w3.org/2000/svg" xmlns:xlink="http://www.w3.org/1999/xlink" x="0px" y="0px"
	 viewBox="0 0 1200 492" style="enable-background:new 0 0 1200 492;" xml:space="preserve">
<g transform="translate(0.000000,492.000000) scale(0.100000,-0.100000)">
	<path d="M1587.1,4261.2c2.2-5.2,193.5-819.7,425.3-1810C2244.9,1460.1,2436.9,650,2439.1,650s48.6,26.5,103,58.9
		c520.9,313.4,1112.5,470.2,1707,454c454-13.2,896.9-111.8,1331.7-297.3c97.1-41.9,287-136.9,362.7-181.7
		c31.6-18.4,60.3-33.8,64-33.8s30.2,14,60.3,31.6c122.1,72.1,291.4,154.5,436.3,212.6c1033,414.2,2072.7,349.5,2968.8-185.4
		c54.4-32.4,100.8-58.9,103-58.9c7.4,0,838.8,3556.7,838.8,3589.1v30.9h-268.6h-267.8l14-33.1c31.6-72.8,39.7-121.4,39.7-228.1
		c0-84.6-2.2-113.3-16.2-160.4c-80.9-282.5-329.6-460.6-621.7-444.4c-226.6,12.5-412.8,133.9-512.8,334
		c-34.6,70.6-48.6,119.2-58.9,205.3c-11.8,97.1,5.9,214.8,47.8,314.2c5.2,11.8-168.5,12.5-3590.6,12.5
		C2306.7,4270,1584.9,4267.8,1587.1,4261.2z M7972.1,3259.8v-127.3l-74.3-82.4c-73.6-80.9-75-82.4-106.7-82.4
		c-17.7,0-32.4,0.7-32.4,2.2c0,0.7,14.7,39.7,33.1,86.1c18.4,46.4,33.1,85.3,33.1,86.1c0,1.5-31.6,2.2-69.9,2.2h-69.9v121.4v121.4
		h143.5h143.5V3259.8z M4815.7,3306.1c209.7-21.3,367.2-92,493-220.7c67-69.2,117-150.1,147.9-242.8c20.6-61.1,24.3-82.4,27.2-170.7
		l3.7-101.5h-511.4h-511.4l6.6-41.2c16.2-102.3,89.8-183.2,196.5-217.1c62.5-19.1,159.7-19.1,222.9,0.7
		c50.8,15.5,121.4,61.1,141.3,91.2l11.8,19.1h202.3c156.7,0,202.3-2.2,202.3-8.8c-0.7-21.3-70.6-128-115.5-175.8
		c-126.6-133.9-291.4-194.2-554.8-203.1c-202.3-6.6-346.5,17.7-481.2,81.7c-84.6,39.7-125.8,67.7-186.9,125.1
		c-117,111.1-177.3,258.3-177.3,432.6c0.7,218.5,91.2,395.8,259.7,504.7C4349.9,3281.1,4587.6,3329.7,4815.7,3306.1z M8741,3306.1
		c206.8-19.9,367.2-86.8,469.4-197.9c43.4-47.1,80.2-110.4,89.8-153l5.2-24.3h-197.9h-197.2l-16.2,36.1
		c-17.7,41.2-47.1,63.3-112.6,86.1c-48.6,16.9-170.7,18.4-237.7,3.7c-56.7-12.5-93.4-43.4-93.4-79.5c0-68.4,44.9-86.8,305.3-127.3
		c349.5-54.4,495.9-120.7,559.2-253.8c28-58.1,33.8-150.8,14.7-221.5c-33.8-124.3-150.1-231-314.2-285.5
		c-186.2-62.5-458.4-72.1-646-22.8c-198.7,52.2-341.4,181-370.1,333.3l-4.4,23.5h194.2h195l9.6-23.5
		c36.1-85.3,155.2-131.7,297.3-115.5c97.1,11,142,39,142,88.3c0,61.8-47.1,84.6-236.2,113.3c-70.6,11-159.7,25.8-197.9,33.8
		c-259,53-397.3,155.2-418.7,309.8C7938.3,3135.4,8279.7,3348.8,8741,3306.1z M6120.2,2903.7c106-207.5,195-374.5,197.2-371.6
		c2.9,2.9,85.3,172.9,183.2,378.9l178.8,373h175.1c97.1,0,175.8-2.2,175.8-5.2c0-3.7-133.9-275.9-297.3-605.5l-297.3-599.7
		l-223.7-1.5l-222.9-2.2L5664,2671.9c-179.5,331.1-325.9,604.1-325.9,607c0,2.9,132.4,4.4,295,3.7l294.3-2.2L6120.2,2903.7z
		 M7595.4,2675.6l1.5-605.5H7343h-253.8v607v607l252.4-1.5l251.6-2.2L7595.4,2675.6z M3285.3,2838.9v-437.8l318.6-1.5l317.9-2.2
		l2.2-163.3l1.5-164.1h-581.3h-581.3v603.3v603.3h261.2h261.2V2838.9z"/>
	<path d="M4623.6,3045.7c-87.6-30.9-147.2-109.6-155.2-203.1l-2.2-25.8l245.7-2.2l245.7-1.5l-4.4,42.7
		c-11,122.9-108.9,200.9-250.9,200.1C4673.7,3055.2,4638.3,3050.8,4623.6,3045.7z"/>
	<path d="M8874.9,4227.3c-32.4-72.1-44.1-130.2-44.1-218.5c0-97.9,14.7-162.6,53.7-242.8c161.1-330.4,615.8-373.8,837.3-80.9
		c111.8,148.6,136.9,370.1,60.3,538.6l-21.3,46.4h-85.3c-79.5,0-86.1-0.7-80.9-12.5c25.8-62.5,23.5-150.8-4.4-201.6
		c-20.6-37.5-70.6-71.4-124.3-83.1l-36.8-8.1l92-142.7c50.8-78.7,95.7-148.6,100.1-156c6.6-13.2,2.9-14-50.8-14h-58.1l-94.9,150.8
		l-94.9,150.8h-60.3h-61.1v-150.8V3652h-55.2h-55.2v309v309h-98.6h-97.9L8874.9,4227.3z"/>
	<path d="M9200.9,4159.6v-110.4h101.5c116.3,0,144.9,5.9,174.4,36.8c17.7,19.1,22.1,29.4,24.3,69.2c2.9,43.4,1.5,47.8-19.9,72.1
		c-30.2,34.6-64.7,42.7-183.9,42.7h-96.4V4159.6z"/>
</g>
</svg>
