<?xml version="1.0" standalone="no"?>
<!DOCTYPE svg PUBLIC "-//W3C//DTD SVG 20010904//EN"
 "http://www.w3.org/TR/2001/REC-SVG-20010904/DTD/svg10.dtd">
<svg version="1.0" xmlns="http://www.w3.org/2000/svg"
 width="100%" height="100%" viewBox="0 0 1200.000000 429.000000"
 preserveAspectRatio="xMidYMid meet">

<g transform="translate(0.000000,429.000000) scale(0.100000,-0.100000)"
fill="#000000" stroke="none">
<path d="M1562 4099 c-647 -713 -992 -1176 -1236 -1659 -341 -673 -416 -1285
-211 -1717 64 -135 133 -229 259 -350 190 -183 395 -283 696 -340 132 -24 471
-29 650 -8 285 32 594 104 930 215 349 115 -138 -91 6040 2555 1647 706 3061
1311 3143 1346 81 34 146 63 145 65 -2 1 -219 -55 -483 -126 -518 -138 -1466
-390 -2805 -746 -3030 -806 -3689 -982 -3885 -1034 -1532 -409 -1705 -452
-1955 -486 -156 -22 -508 -25 -625 -6 -294 48 -461 129 -640 307 -151 151
-224 279 -276 486 -30 121 -37 383 -15 539 45 306 180 687 356 999 39 68 69
125 68 127 -2 1 -72 -74 -156 -167z"/>
</g>
</svg>
