<?xml version="1.0" encoding="utf-8"?>
<!-- Generator: Adobe Illustrator 27.6.1, SVG Export Plug-In . SVG Version: 6.00 Build 0)  -->
<svg version="1.1" id="Layer_1" xmlns="http://www.w3.org/2000/svg" xmlns:xlink="http://www.w3.org/1999/xlink" x="0px" y="0px"
	 viewBox="0 0 800 800" style="enable-background:new 0 0 800 800;" xml:space="preserve">
<style type="text/css">
	.st0{fill-rule:evenodd;clip-rule:evenodd;}
</style>
<g>
	<path class="st0" d="M773.4,290.1c-8.2,0-14.9,6.7-14.9,14.9c0,8.2,6.7,14.9,14.9,14.9c8.2,0,14.9-6.7,14.9-14.9c0,0,0,0,0,0
		C788.2,296.8,781.6,290.1,773.4,290.1z M773.4,318.1c-7.2,0-13.1-5.9-13.1-13.1c0,0,0,0,0-0.1c0-7.2,5.9-13.1,13.1-13.1
		c0,0,0,0,0,0c7.2,0,13.1,5.8,13.1,13.1C786.5,312.2,780.6,318.1,773.4,318.1C773.4,318.1,773.4,318.1,773.4,318.1z"/>
	<path class="st0" d="M781,301.1c0-1.4-0.6-2.9-1.9-3.6c-1.2-0.7-2.7-0.8-4.1-0.8h-7.2v16.6h2v-7.7h3.7l4.8,7.7h2.4l-5-7.7
		C778.7,305.6,781,304.4,781,301.1L781,301.1z M773,304.1h-3.1v-5.9h4.8c2.1,0,4.3,0.3,4.3,2.9C779,304.5,775.3,304.1,773,304.1z
		 M274.7,550.6l-97.1-47.4c-2.1-1.1-3.2-3.9-3.2-5.8l0.3-26.2c0-1.8,0.4-3.7,2.8-5.5c10.4-6.6,42.5-24.4,75.7-72.8
		c44.2-64.5,0-118.7-69.1-104c-61.4,13.1-123.8,46.3-150.9,64.4c-24.2,16.1-20.8,35.6-21.5,53c1.3,7.4,4,6.7,10.1-0.7
		c44.9-41.6,113.4-73.1,126.1-78.5c12.7-5.4,42.9-23.5,78.5-15.4c34.2,7.7,25.9,54.2,15.4,73.8c-11.4,21.5-43.9,52.7-58.7,60.4
		c-5.6,2.9-7.7,0-7.7-4.7l2.3-101c0-6.7-3-9.7-9.7-7.4l-10.7,5.4c-7.4,4.4-7,6-7.7,11.4L148,466.1c-0.1,2.5-1.2,4.5-2.6,5.1
		l-35,19.7c-8,4-6,10.1,0,12.1l28.2,13.4c6.7,2.7,8.7,4.7,8.7,11.4l-1,56.4c25.2-5,26.8-17.1,27.5-25.2v-17.1c0.7-4,3-5.4,6.4-4.7
		l81.8,39.6c7.4,3.4,11.4,2,16.8-7.4C284.1,560,284.8,555.3,274.7,550.6L274.7,550.6z M417.8,408.5c-11.4,6.6-16.6,18.9-12.2,26.6
		c4.5,7.8,18,9.1,29.4,2.5c11.4-6.6,16.3-18.5,11.8-26.3C442.3,403.5,429.1,401.9,417.8,408.5z"/>
	<path class="st0" d="M375.8,416.8c-3.1,3.8-9.1,15.3-12.4,22.3c-3.4,7-10.4,23-17.4,23c-7.4,0-8.4-18.4-8.4-25.2s-4-7.7-6-7.4
		s-7.7,2.3-9.4,9.4c-1.7,7-10.7,37.6-20.8,37.6c-6.4,0-11.1-18.4-11.4-24.2c-0.3-5.7-3-10.4-8.7-10.4c-4,0-9.1,2-11.1,4.4
		s-2.3,6-13.1,3.7c-9.7-0.3-19.1,4.7-30.5,23.8c-6.9,11.5-12.4,33-2,41.6c9.7,8,26.8-6.4,31.9-12.4c5-6,9.4-10.4,11.4-13.7
		c2-3.4,4-3,5,0.3c1,3.4,6.7,16.4,14.1,16.1c7.4-0.3,16.8-6,27.8-25.5c2-4,5-3.7,5.7-0.3c0.7,3.4,5,14.4,12.4,14.4
		c7,0,14.9-11.2,18.8-17.8c2.7-4.5,6.7-2.3,6.7,2s-2,107.3-2,107.3c0,4.7,1.8,6,5.2,6h14.6c2.7,0,5-2.3,5-6l3-166.9
		C384.2,415,379.7,412.1,375.8,416.8L375.8,416.8z M261.8,482.6c-3,5-11.1,18.4-18.1,16.1c-3.7-2,1.2-15.4,3.7-20.1
		c3.7-7,14.5-18.3,19.5-15.4C271.5,465.8,264.8,477.5,261.8,482.6L261.8,482.6z M772.8,379.7c-1.3,1.2-3.5,3.2-8.4,1
		c-8.4-3.4-9.1-19.1-13.4-33.5c-3.9-13-13.4-12.1-16.8-6.2L724,357.4c-1.8,3.4-5.9,11.1-9.9,11.1c-4.7,0-2.6-6.7-2.3-13.4
		c0.2-4.5-2.7-10.2-7.4-10.2c-5.4,0-11.1,8.2-15.4,17.6c-3,6.6-10.9,31.7-20.8,31.7c-6.4,0-7-18.4-7.4-24.2s-2.3-12.7-8-12.7
		c-3.9,0-6.4,2-8.4,4.4c-2,2.3-2.3,4.4-9.4,3.4c-9.7-0.3-25.8,8.7-37.2,27.8c-6.9,11.5-15.1,35.6-4.7,44.3
		c9.7,8,27.2-10.7,32.2-16.8c5-6,9.4-10.4,11.4-13.8c2-3.4,4-3,5,0.3c1,3.4,6.7,16.4,14.1,16.1c7.4-0.3,13.4-2,24.5-21.5
		c2-4,5.7-4.5,6.4-1.2c0.7,3.4,1.3,12.2,8.4,12.2c12.1,0,25.8-29.4,29.2-36.2c3-6,7.9-4.4,9.6,0.2c2.4,6.5,4.5,27.3,17.6,27.3
		s22-13.9,24.6-18.3C779,381.2,777.5,375.6,772.8,379.7L772.8,379.7z M630.6,399.8c-3,5-9.7,16.1-16.8,13.8
		c-3.7-2,0.9-11.7,3.4-16.4c3.7-7,14.5-18.4,19.5-15.6C641.3,384.2,633.6,394.8,630.6,399.8L630.6,399.8z M565.8,382.2
		c0,0-28.5-20.8-36.6-30.2c-5.4-6.3-1.7-11.1,1.7-13.8c20.1-13.4,51.7-34.2,64.1-66.4c12-31-6.7-58-20.1-62.4
		c-18.4-6-57.4,6-76.8,42.3c-12.6,23.5-18.4,31.2-20.1,94.9c-0.3,12.1-0.7,25.8-0.7,40.9c0,15.1-1.7,56-3.4,63.7
		c-6.4,18.1,12.7,7.4,21.5,0.3c8.7-7,8-17.6,8-22.1c0-5.7,0.3-106.3,3.4-128.8c1.9-14,4-39.9,18.8-62.4
		c14.8-22.5,29.9-13.4,33.9-9.7c4,3.7,9.7,13.1,6.7,32.2c-4.7,29.7-38.9,62.1-47.6,72.1c-8.7,10.1-6.7,18.8-1.7,25.8
		c3.6,5,12.4,14.8,21.5,23.8c9.1,9.1,8,17.1,6.7,23.1c-4.7,18.1-53.7,67.1-53.7,67.1c-10.4,11.1,0.3,29.2,4,35.2c3.7,6,8.4,4,11.4-1
		c12.1-22.5,64.1-76.8,64.1-76.8C585.9,411.1,579.6,392.6,565.8,382.2L565.8,382.2z"/>
</g>
</svg>
