<?xml version="1.0" standalone="no"?>
<!DOCTYPE svg PUBLIC "-//W3C//DTD SVG 20010904//EN"
 "http://www.w3.org/TR/2001/REC-SVG-20010904/DTD/svg10.dtd">
<svg version="1.0" xmlns="http://www.w3.org/2000/svg"
 width="100%" height="100%" viewBox="0 0 2560.000000 461.000000"
 preserveAspectRatio="xMidYMid meet">

<g transform="translate(0.000000,461.000000) scale(0.100000,-0.100000)"
fill="#000000" stroke="none">
<path d="M2149 4550 c-844 -55 -1569 -332 -1878 -715 -205 -255 -270 -582
-180 -913 100 -372 382 -647 828 -809 276 -100 822 -191 1721 -288 900 -97
1113 -133 1286 -216 125 -59 185 -137 207 -265 21 -120 -15 -239 -99 -333 -57
-63 -118 -102 -239 -151 -387 -158 -907 -211 -1417 -145 -164 21 -489 87 -637
130 -260 74 -462 167 -612 280 -105 79 -245 223 -286 295 -45 78 -93 229 -100
311 l-6 69 -278 0 -279 0 0 -785 0 -785 310 0 310 0 0 115 c0 196 29 218 197
149 303 -125 626 -222 980 -294 328 -66 452 -80 738 -87 468 -11 847 36 1275
156 813 229 1222 637 1222 1218 -1 455 -219 811 -642 1046 -79 44 -303 135
-420 170 -319 97 -929 193 -1790 282 -891 92 -1065 128 -1171 242 -22 25 -47
60 -56 80 -19 47 -19 156 1 211 75 209 372 348 896 419 192 26 697 26 890 0
582 -78 1056 -263 1277 -500 97 -103 188 -268 223 -404 l11 -43 249 0 250 0 0
685 0 685 -280 0 -280 0 0 -95 c0 -88 -2 -98 -25 -120 -35 -36 -69 -32 -189
24 -315 148 -721 270 -1096 331 -288 46 -658 67 -911 50z"/>
<path d="M8905 4554 c-955 -63 -1834 -428 -2282 -949 -670 -777 -636 -1945 77
-2666 447 -452 1112 -740 1950 -846 195 -25 766 -25 972 0 508 61 915 178
1298 372 605 308 986 763 1140 1361 80 310 82 665 4 984 -84 344 -278 680
-532 922 -489 465 -1130 731 -1942 808 -120 11 -582 21 -685 14z m465 -594
c299 -38 590 -144 822 -301 125 -85 306 -267 387 -388 280 -423 355 -963 205
-1489 -34 -120 -149 -348 -231 -457 -178 -237 -429 -426 -708 -534 -569 -219
-1248 -156 -1734 163 -228 149 -400 342 -521 584 -305 612 -216 1396 214 1881
259 292 643 483 1082 540 99 12 385 13 484 1z"/>
<path d="M12740 4061 l0 -249 278 -4 c259 -4 281 -5 334 -26 34 -14 70 -38 92
-62 70 -77 66 -1 66 -1426 0 -901 -3 -1298 -11 -1335 -16 -73 -64 -124 -130
-138 -29 -6 -166 -11 -319 -11 l-270 0 0 -245 0 -245 1150 0 1150 0 0 244 0
244 -327 4 -328 3 -44 25 c-59 33 -79 71 -91 171 -7 53 -9 465 -8 1103 l3
1018 1575 -1406 1574 -1406 403 0 403 0 0 103 c0 56 -9 784 -21 1617 -11 833
-18 1543 -14 1577 9 84 40 142 90 167 37 20 60 21 353 24 l312 4 0 249 0 249
-1170 0 -1170 0 0 -249 0 -250 313 -3 c310 -3 312 -3 362 -28 58 -29 89 -71
104 -141 10 -46 47 -1766 39 -1790 -2 -6 -59 41 -128 103 -154 138 -1032 931
-2394 2160 l-219 198 -978 0 -979 0 0 -249z"/>
<path d="M19450 4061 l0 -249 293 -4 c279 -4 295 -5 352 -27 69 -28 121 -59
184 -110 63 -51 1562 -1749 1601 -1813 19 -32 20 -51 20 -448 -1 -228 -5 -435
-9 -459 -11 -55 -37 -89 -87 -115 -37 -20 -55 -21 -344 -21 l-305 -1 -3 -247
-2 -247 1370 0 1370 0 -2 248 -3 247 -330 5 c-361 5 -363 6 -410 68 -19 26
-20 45 -23 504 l-3 477 29 33 c234 272 1522 1739 1566 1782 37 36 84 70 125
90 l66 31 323 3 322 4 0 249 0 249 -1125 0 -1125 0 0 -250 0 -250 184 0 c183
0 185 0 214 -25 37 -31 48 -74 30 -109 -18 -35 -967 -1146 -978 -1146 -10 0
-950 1123 -969 1158 -18 34 -13 62 18 93 l29 29 181 0 181 0 0 250 0 250
-1370 0 -1370 0 0 -249z"/>
</g>
</svg>
