<?xml version="1.0" encoding="utf-8"?>
<!-- Generator: Adobe Illustrator 25.3.0, SVG Export Plug-In . SVG Version: 6.00 Build 0)  -->
<svg version="1.1" id="Calque_1" xmlns="http://www.w3.org/2000/svg" xmlns:xlink="http://www.w3.org/1999/xlink" x="0px" y="0px"
	 viewBox="0 0 350 44.4" style="enable-background:new 0 0 350 44.4;" xml:space="preserve">
<style type="text/css">
	.st0{fill-rule:evenodd;clip-rule:evenodd;}
</style>
<path class="st0" d="M144.9,1.5H99.2v9.6h16.4v31.6h13.2V11.1h16.1L144.9,1.5L144.9,1.5z"/>
<path class="st0" d="M149,42.7h13.4V1.5H149V42.7z"/>
<path class="st0" d="M349.7,1.5H304v9.6h16.4v31.6h13.2V11.1h16.1V1.5z"/>
<path class="st0" d="M281.7,36.1c7,0,10.3-6.3,10.3-14.1s-3.8-14.1-10.3-14.1c-7.6,0-10.5,6.3-10.5,14.1S274.2,36.1,281.7,36.1z
	 M257.9,22c0-14.3,10.7-21.4,23.8-21.4c13.2,0,23.8,8,23.8,21.4c0,13.5-10.7,21.4-23.8,21.4C268.5,43.4,257.9,37.2,257.9,22z"/>
<path class="st0" d="M253.2,14.9c-4,0-7.9,0-11.9,0c-0.6-2.1-1.6-3.9-3.5-5.2c-2.3-1.5-5-1.7-7.6-1c-2,0.5-4.2,2.2-3.3,4.5
	c0.5,1.4,2,2,3.3,2.4c6.6,1.8,13.3,2.1,19.3,5.8c3,1.8,4.6,4.9,4.5,8.2c-0.2,14-17.3,15.7-28.5,13.4c-7.2-1.5-14.1-6.8-13.5-14.7
	c4.2,0,8.3,0,12.5,0c0.8,1.7,0.5,3.4,1.6,5c0.6,0.9,1.4,1.7,2.3,2.1c0.7,0.4,1.4,0.8,2.2,1c2.1,0.5,4.2,0.6,6.2-0.1
	c1.5-0.5,2.7-1.5,3.4-2.9c0.4-0.8,0.3-1.7,0.1-2.6c-0.2-0.5-0.5-0.9-0.7-1.3c-1-1.5-2.7-1.9-4.3-2.4c-7.3-2.3-16.8-1.4-20.8-9
	c-1.2-2.3-1.2-4.8-0.6-7.4c0.4-1.8,1.6-3.3,2.9-4.5c1.2-1.1,2.5-2.2,4.1-3c7.7-3.5,16.6-3.1,24.1,0.2C249.3,5.5,253,9.7,253.2,14.9z
	"/>
<path class="st0" d="M207.9,14.7c-4,0-7.9,0-11.9,0c-0.6-2.1-1.6-3.9-3.5-5.2c-2.3-1.5-5-1.7-7.6-1c-2,0.5-4.2,2.2-3.3,4.5
	c0.5,1.4,2,2,3.3,2.4c6.6,1.8,13.3,2.1,19.3,5.8c3,1.8,4.6,4.9,4.5,8.2c-0.2,14-17.3,15.7-28.5,13.4c-7.2-1.5-14.1-6.8-13.5-14.7
	c4.2,0,8.3,0,12.5,0c0.8,1.7,0.5,3.4,1.6,5c0.6,0.9,1.4,1.7,2.3,2.1c0.7,0.4,1.4,0.8,2.2,1c2.1,0.5,4.2,0.6,6.2-0.1
	c1.5-0.5,2.7-1.5,3.4-2.9c0.4-0.8,0.4-1.7,0.1-2.6c-0.2-0.5-0.5-0.9-0.7-1.3c-1-1.5-2.7-1.9-4.3-2.4c-7.3-2.3-16.9-1.4-20.8-9
	c-1.2-2.3-1.2-4.8-0.6-7.4c0.4-1.8,1.6-3.3,2.9-4.5c1.2-1.1,2.5-2.2,4.1-3c7.7-3.5,16.6-3.1,24.1,0.2C204,5.3,207.7,9.5,207.9,14.7z
	"/>
<path class="st0" d="M49.1,1.5v41.2h41.2V1.5H49.1z M85,26.6H74.3v10.9h-9.1V26.7H54.4v-9.1h10.7V6.8h9.1v10.8H85V26.6z"/>
<path class="st0" d="M1.4,1.5v41.2h41.2V1.5H1.4z M37.4,13.9H26.8v23.5h-9.5V13.9H6.7V6.8h30.6h0.1V13.9z"/>
</svg>
